<?xml version="1.0" standalone="yes"?>

<svg xmlns="http://www.w3.org/2000/svg" width="326" height="155">
<path style="fill:#fdfdfe; stroke:none;" d="M0 0L0 155L326 155L326 0L0 0z"/>
<path style="fill:#303030; stroke:none;" d="M262 32L263 32L266 28L262 32z"/>
<path style="fill:#bf935b; stroke:none;" d="M264 28L264 29L268 27L264 28z"/>
<path style="fill:#303030; stroke:none;" d="M268 27L269 28L268 27z"/>
<path style="fill:#bf935b; stroke:none;" d="M269 27L270 28L269 27M262 28L263 29L262 28z"/>
<path style="fill:#fdfdfe; stroke:none;" d="M266 29L266 30L269 29L266 34L268 32L270 33L270 28L266 29z"/>
<path style="fill:#303030; stroke:none;" d="M270 28L271 29L270 28z"/>
<path style="fill:#fdfdfe; stroke:none;" d="M263 29L264 33L265 33L265 29L263 29z"/>
<path style="fill:#303030; stroke:none;" d="M265.333 29.6667L265.667 30.3333L265.333 29.6667M268 29L267 32L268 32L268 29M271 29L271 32L272 32L271 29z"/>
<path style="fill:#bf935b; stroke:none;" d="M264 30L265 33L262 32L262 33C264.742 34.3052 266.801 35.4113 269 33L266 34L264 30M266 30L267 31L266 30M268 30L269 31L268 30M197 31L197 32L212 32L197 31M184 32L184 33L190 33L184 32z"/>
<path style="fill:#0758a3; stroke:none;" d="M190 32L190 33C203.538 33 218.524 34.1392 231 39.9012C241.992 44.9777 243.66 54.4336 234.907 62.8156C226.732 70.6441 215.355 75.2906 205 79.3989C182.256 88.4221 155.499 97.0504 131 99C138.585 102.094 152.048 97.2617 160 95.919C187.911 91.206 215.974 83.9497 242 72.7191C250.646 68.9881 269.639 60.7872 268.667 49C267.376 33.3568 234.852 33.5659 224 32.2855C212.904 30.9762 201.17 32 190 32z"/>
<path style="fill:#bf935b; stroke:none;" d="M225 32L225 33L231 33L225 32z"/>
<path style="fill:#303030; stroke:none;" d="M268 32L269 33L268 32z"/>
<path style="fill:#bf935b; stroke:none;" d="M270 32L270 34L272 32L270 32M200 33L200 34L204 34L200 33M236 33L236 34L240 34L236 33z"/>
<path style="fill:#303030; stroke:none;" d="M269 33L270 34L269 33z"/>
<path style="fill:#bf935b; stroke:none;" d="M209.667 34.3333L210.333 34.6667L209.667 34.3333M243 34L243 35L246 35L243 34M215.667 35.3333L216.333 35.6667L215.667 35.3333M248.667 35.3333L249.333 35.6667L248.667 35.3333M220.667 36.3333L221.333 36.6667L220.667 36.3333M252.667 36.3333L253.333 36.6667L252.667 36.3333M152 37L152 38L156 38L152 37M224 37L225 38L224 37M256 37L257 38L256 37z"/>
<path style="fill:#e63625; stroke:none;" d="M55 38C61.3699 49.0728 67.0366 52.746 67 66C80.2197 66 75.4702 61.5841 82.2785 53C86.6646 47.47 92.8353 43.6584 97 38C85.9915 38 81.8891 40.1117 74 48C70.2249 38.187 64.3955 38 55 38z"/>
<path style="fill:#bf935b; stroke:none;" d="M83 38L84 39L83 38z"/>
<path style="fill:#e63625; stroke:none;" d="M89 66L109.999 62.0054L130 66C128.451 59.3079 124.513 42.951 118.582 39.0278C105.523 30.3894 92.4085 57.0071 89 66z"/>
<path style="fill:#bf935b; stroke:none;" d="M119 38L120 39L119 38M144.667 38.3333L145.333 38.6667L144.667 38.3333z"/>
<path style="fill:#e63625; stroke:none;" d="M133 57C136.129 68.9439 155.998 70.0581 164.786 63.1458C171.275 58.0424 167.698 51.5442 160.999 49.4437C156.404 48.0027 151.609 47.4615 147 46L147 44L169 46C165.504 35.9632 142.08 33.6503 137.223 44.044C132.37 54.4292 150.644 52.8023 154.534 56.723C158.385 60.605 150.608 61.6524 148.09 60.3009C145.93 59.1423 144.43 57.5541 141.91 57.1474C139.036 56.6834 135.906 57 133 57z"/>
<path style="fill:#bf935b; stroke:none;" d="M161.667 38.3333L162.333 38.6667L161.667 38.3333z"/>
<path style="fill:#e63625; stroke:none;" d="M177 38L174 66L184.973 64.3966L188.434 56.0278L200 55L199 66L211 66L214 38L203.027 39.6034L199.682 46.9722L188 48L189 38L177 38z"/>
<path style="fill:#bf935b; stroke:none;" d="M202 38L203 39L202 38M214.333 38.6667L214.667 39.3333L214.333 38.6667M227 38L228 39L227 38M258 38L259 39L258 38M55 39L56 40L55 39M82 39L83 40L82 39M105 39L106 40L105 39M141 39L142 40L141 39M164 39L165 40L164 39M176 39L176 42L177 42L176 39M230 39L231 40L230 39M260 39L261 40L260 39M56 40L57 41L56 40M69 40L70 41L69 40M81 40L82 41L81 40M120 40L121 41L120 40M166 40L167 41L166 40M188 40L188 43L189 43L188 40M232 40L233 41L232 40M262 40L263 41L262 40M70 41L71 42L70 41M80 41L81 42L80 41M138 41L139 42L138 41M167 41L168 42L167 41M234 41L235 42L234 41M103 42L104 43L103 42M121.333 42.6667L121.667 43.3333L121.333 42.6667M137 42L138 43L137 42M265 42L266 43L265 42M91 43L92 44L91 43M148 43L149 44L148 43M155 43L156 44L155 43M168 43L169 44L168 43M201 43L201 47L202 47L201 43M237 43L238 44L237 43M266 43L267 44L266 43M59 44L60 45L59 44M72 44L73 45L72 44M90 44L91 45L90 44M136 44L137 45L136 44M147.333 44.6667L147.667 45.3333L147.333 44.6667M156 44L157 45L156 44M238 44L239 45L238 44M267 44L268 45L267 44M60 45L61 46L60 45M89 45L90 46L89 45M101 45L102 46L101 45M122 45L123 46L122 45M213 45L213 48L214 48L213 45M88 46L89 47L88 46z"/>
<path style="fill:#fdfdfe; stroke:none;" d="M111 46L107 56L114 56L111 46z"/>
<path style="fill:#bf935b; stroke:none;" d="M148 46L149 47L148 46M157 46L157 47L162 47L157 46M268 46L269 47L268 46M74 47L75 48L74 47M87 47L88 48L87 47M112 47L113 48L112 47M151.667 47.3333L152.333 47.6667L151.667 47.3333M175 47L175 51L176 51L175 47M240 47L241 48L240 47M86 48L87 49L86 48M99 48L100 49L99 48M123 48L124 49L123 48M136 48L137 49L136 48M157.667 48.3333L158.333 48.6667L157.667 48.3333M63 49L64 50L63 49M85 49L86 50L85 49M109 49L110 50L109 49M161 49L162 50L161 49M64 50L65 51L64 50M84 50L85 51L84 50M113 50L114 51L113 50M124 50L125 51L124 50M137 50L138 51L137 50M164 50L165 51L164 50M241 50L241 53L242 53L241 50M65 51L66 52L65 51M97 51L98 52L97 51M108 51L109 52L108 51M166 51L167 52L166 51M140 52L141 53L140 52M167 52L168 53L167 52M268 52L269 53L268 52M96 53L97 54L96 53M107 53L108 54L107 53M114 53L114 56L115 56L114 53M143 53L144 54L143 53M212 53L212 56L213 56L212 53M67 54L68 55L67 54M95 54L96 55L95 54M147.667 54.3333L148.333 54.6667L147.667 54.3333M168 54L169 55L168 54M267 54L268 55L267 54M106 55L107 56L106 55M126 55L127 56L126 55M152.667 55.3333L153.333 55.6667L152.667 55.3333M174 55L174 59L175 59L174 55M240 55L241 56L240 55M67.3333 56.6667L67.6667 57.3333L67.3333 56.6667M94 56L95 57L94 56M266 56L267 57L266 56M79 57L79 60L80 60L79 57M186.333 57.6667L186.667 58.3333L186.333 57.6667M239 57L240 58L239 57M265 57L266 58L265 57M168 58L169 59L168 58M264 58L265 59L264 58M92 59L93 60L92 59M133 59L134 60L133 59M156 59L157 60L156 59M199 59L199 63L200 63L199 59M263 59L264 60L263 59M128 60L129 61L128 60M155 60L156 61L155 60M167 60L168 61L167 60M237 60L238 61L237 60M262 60L263 61L262 60M149 61L149 62L154 62L149 61M211 61L211 64L212 64L211 61M236 61L237 62L236 61M261 61L262 62L261 61M90 62L91 63L90 62M102 62L103 63L102 62M235 62L236 63L235 62M260 62L261 63L260 62M129 63L130 64L129 63M164 63L165 64L164 63M173 63L173 67L185 67L185 66L173 63M234 63L235 64L234 63M258 63L259 64L258 63M66 64C67.0024 68.6778 77.9976 68.6778 79 64L78 64C74.2498 66.8411 69.9821 66.2146 66 64M101 64L102 65L101 64M117 64L118 65L117 64M233 64L234 65L233 64M257 64L258 65L257 64M88 65L100 67L100 66L88 65M130 65L118 66L118 67L130 65M139 65L140 66L139 65M160 65L161 66L160 65M185 65L186 66L185 65M142 66L142 67L145 67L142 66M155 66L155 67L158 67L155 66M199 66L199 67L211 67L199 66M230 66L231 67L230 66M254 66L255 67L254 66M252 67L253 68L252 67M227 68L228 69L227 68M250 68L251 69L250 68M224 70L225 71L224 70M222 71L223 72L222 71M244 71L245 72L244 71M220 72L221 73L220 72M242 72L243 73L242 72M64 73L64 75L68 75L68 85L70 85L70 75L74 75L74 73L64 73M97 73L96 85L98 85L102 78L102 85C106.309 81.2348 103.224 76.3158 98 77L97 73M130 73L130 85L132 85L130 73M158.333 73.6667L158.667 74.3333L158.333 73.6667M218 73L219 74L218 73M240 73L241 74L240 73M216 74L217 75L216 74M237 74L238 75L237 74M214 75L215 76L214 75M235 75L236 76L235 75M83 82L76 81L83 81C81.6441 76.7211 74.8673 74.919 74.8673 80.9853C74.8673 86.2175 81.0892 84.9449 83 82M94 82C87.7333 83.0102 87.7327 78.2892 94 79C83.3996 69.4206 86.7716 93.1403 94 82M108 77L108 85L109 85C109.491 78.5829 113.509 78.5829 114 85C116.366 79.3516 113.854 76.2245 108 77M122.039 76.9707C116.665 78.2079 118.472 85.7241 123.856 84.5077C128.625 83.4304 126.805 75.8737 122.039 76.9707M138.144 76.9707C133.488 78.098 134.924 85.5912 139.91 84.6235C145.299 83.5777 143.245 75.7355 138.144 76.9707M153 84L146 86L146 87C154.134 89.3165 153.999 83.4643 154 77C144.859 75.7992 144.692 85.8513 153 84M171 82L164 81L171 81C169.644 76.7211 162.867 74.919 162.867 80.9853C162.867 86.2175 169.089 84.9449 171 82M174 77L180 83L174 82C176.237 85.4356 178.631 84.7649 182 83L182 82L176 78L181 79L174 77M212 76L213 77L212 76M232 76L233 77L232 76M158 77L158 85L159 85L158 77M209 77L210 78L209 77M230 77L231 78L230 77z"/>
<path style="fill:#fdfdfe; stroke:none;" d="M76 79L76 80L81 80L81 78L76 79M121.578 79.0818C119.622 80.5622 121.172 84.1955 123.581 82.8287C126.201 81.3423 124.1 77.1729 121.578 79.0818M137.782 79.0818C135.763 80.7132 138.185 84.1655 140.397 82.8287C142.902 81.3149 140.105 77.2039 137.782 79.0818M148 78L149 84C153.149 81.6974 152.677 78.783 148 78M164 79L164 80L169 80L169 78L164 79z"/>
<path style="fill:#bf935b; stroke:none;" d="M207 78L208 79L207 78M227 78L228 79L227 78M204 79L205 80L204 79M224 79L225 80L224 79M202 80L203 81L202 80M221 80L222 81L221 80M199 81L200 82L199 81M218.667 81.3333L219.333 81.6667L218.667 81.3333M196 82L197 83L196 82M215 82L216 83L215 82M193 83L194 84L193 83M212 83L213 84L212 83M190 84L191 85L190 84M209 84L210 85L209 84M187 85L188 86L187 85M205.667 85.3333L206.333 85.6667L205.667 85.3333M183.667 86.3333L184.333 86.6667L183.667 86.3333M202 86L203 87L202 86M180.667 87.3333L181.333 87.6667L180.667 87.3333M198 87L199 88L198 87M177 88L178 89L177 88M194.667 88.3333L195.333 88.6667L194.667 88.3333M173.667 89.3333L174.333 89.6667L173.667 89.3333M190.667 89.3333L191.333 89.6667L190.667 89.3333M169.667 90.3333L170.333 90.6667L169.667 90.3333M186.667 90.3333L187.333 90.6667L186.667 90.3333M166 91L167 92L166 91M181.667 91.3333L182.333 91.6667L181.667 91.3333M161.667 92.3333L162.333 92.6667L161.667 92.3333M177.667 92.3333L178.333 92.6667L177.667 92.3333M158 93L159 94L158 93M172.667 93.3333L173.333 93.6667L172.667 93.3333M153.667 94.3333L154.333 94.6667L153.667 94.3333M167.667 94.3333L168.333 94.6667L167.667 94.3333M149 95L150 96L149 95M162.667 95.3333L163.333 95.6667L162.667 95.3333M144.667 96.3333L145.333 96.6667L144.667 96.3333M156 96L156 97L159 97L156 96M139.667 97.3333L140.333 97.6667L139.667 97.3333M150 97L150 98L153 98L150 97M134.667 98.3333L135.333 98.6667L134.667 98.3333M144 98L144 99L147 99L144 98M129 99L129 100L133 101L133 100L129 99M137 99L137 100L140 100L137 99M117 101L117 102L126 101L117 101z"/>
<path style="fill:#0758a3; stroke:none;" d="M126 100L126 101L130 101L126 100z"/>
<path style="fill:#bf935b; stroke:none;" d="M57 107L57 108L61 108L57 107M66 107L66 108L69 108L66 107M110 107L110 108L113 109L110 107M160 107L160 108L165 112L165 111L163 107L160 107M233 110L234 110L236 108L233 110M244 109L247 108L244 109M260 107L260 108L263 109L260 107z"/>
<path style="fill:#0758a3; stroke:none;" d="M57 108L55 117L58 110L59 110L60 117L65 111L66 111L65 117L69 108L62 114L61 114L61 108L57 108z"/>
<path style="fill:#bf935b; stroke:none;" d="M105 108L107 110L105 108z"/>
<path style="fill:#0758a3; stroke:none;" d="M106 108L107 109L106 108M110 108L108 117L115 111L114 117C117.727 114.357 116.843 110.259 112 111L112 108L110 108M160 108L158 117C161.438 114.945 163.648 110.915 160 108z"/>
<path style="fill:#bf935b; stroke:none;" d="M182.667 108.333L183.333 108.667L182.667 108.333M229 108L231 110L231 111L229 113C230.927 110.885 231.369 109.828 229 108z"/>
<path style="fill:#0758a3; stroke:none;" d="M234 108L232 117L236 108L234 108M245.667 108.333L246.333 108.667L245.667 108.333M260 108L258 117L261 114L263 114L266 117L264 112L267 111L267 110L261 112L262 108L260 108z"/>
<path style="fill:#bf935b; stroke:none;" d="M56.3333 109.667L56.6667 110.333L56.3333 109.667M64 109L65 110L64 109z"/>
<path style="fill:#0758a3; stroke:none;" d="M104 109C102.795 112.297 101.882 116.118 106 117L108 111L104 109M181 109L179 116L183 117L184 110L181 109M228 109L226 116L230 117L231 110L228 109z"/>
<path style="fill:#bf935b; stroke:none;" d="M259.333 109.667L259.667 110.333L259.333 109.667M58.3333 110.667L58.6667 111.333L58.3333 110.667M63 110L64 111L63 110M66 110L67 111L66 110M68.3333 110.667L68.6667 111.333L68.3333 110.667M72 110L73 111L72 110z"/>
<path style="fill:#0758a3; stroke:none;" d="M73.1443 110.785C68.3995 112.606 71.5286 117.875 75.8557 116.215C80.6005 114.394 77.4714 109.125 73.1443 110.785z"/>
<path style="fill:#bf935b; stroke:none;" d="M77 110L78 111L77 110z"/>
<path style="fill:#0758a3; stroke:none;" d="M82 110L81 117L82 117L88 111L82 110z"/>
<path style="fill:#bf935b; stroke:none;" d="M84 110L85 111L84 110M89 110L85 111L85 112L89 110z"/>
<path style="fill:#0758a3; stroke:none;" d="M95 116L95 115L90 116L96 114C92.6292 104.423 82.7647 119.249 95 116z"/>
<path style="fill:#bf935b; stroke:none;" d="M94 110L95 111L94 110M102.333 110.667L102.667 111.333L102.333 110.667M109 110L110 111L109 110M112 110L113 111L112 110M116 110L117 111L116 110z"/>
<path style="fill:#0758a3; stroke:none;" d="M120 111L120 112L125 111L119 114L119 116L126 117C126.8 111.837 125.397 109.563 120 111z"/>
<path style="fill:#bf935b; stroke:none;" d="M126 110L127 111L126 110z"/>
<path style="fill:#0758a3; stroke:none;" d="M130 110L129 117L132 110L130 110z"/>
<path style="fill:#bf935b; stroke:none;" d="M132 110L132 111L136 113L132 110z"/>
<path style="fill:#0758a3; stroke:none;" d="M134 110L134 111L135 117L136 117L138 111L134 110z"/>
<path style="fill:#bf935b; stroke:none;" d="M137 110L138 111L137 110M144.333 110.667L144.667 111.333L144.333 110.667z"/>
<path style="fill:#0758a3; stroke:none;" d="M145 110L146 117L148 117L150 113L151 113L151 117L158 110L152 114L152 110L147 114L145 110z"/>
<path style="fill:#bf935b; stroke:none;" d="M146 110L147 111L146 110M152 110L154 114L152 110M155 110L156 111L155 110M159.333 110.667L159.667 111.333L159.333 110.667z"/>
<path style="fill:#0758a3; stroke:none;" d="M163 110L163 111L164 117L167 110L163 110z"/>
<path style="fill:#bf935b; stroke:none;" d="M171 110L171 111L175 113L171 110z"/>
<path style="fill:#0758a3; stroke:none;" d="M172 110L172 111L175 113L169 114L169 116L173 117L173 116L171 114L175 114L175 117C177.501 113.265 176.384 110.732 172 110z"/>
<path style="fill:#bf935b; stroke:none;" d="M176 110L177 111L176 110M179.333 110.667L179.667 111.333L179.333 110.667M184 110L185 111L184 110z"/>
<path style="fill:#0758a3; stroke:none;" d="M190 110L190 119L199 110L194 115L193 115L190 110z"/>
<path style="fill:#bf935b; stroke:none;" d="M192 110L192 113L193 113L192 110M196 110L197 111L196 110M201 110L202 111L201 110z"/>
<path style="fill:#0758a3; stroke:none;" d="M202.232 110.762C197.903 112.603 200.94 117.619 204.941 116.338C210.185 114.66 206.854 108.796 202.232 110.762z"/>
<path style="fill:#bf935b; stroke:none;" d="M211.333 110.667L211.667 111.333L211.333 110.667z"/>
<path style="fill:#0758a3; stroke:none;" d="M212 110L210 116L214 117L214 110L212 110z"/>
<path style="fill:#bf935b; stroke:none;" d="M217 110L218 111L217 110z"/>
<path style="fill:#0758a3; stroke:none;" d="M218 110L215 116L218 117L220 110L218 110z"/>
<path style="fill:#bf935b; stroke:none;" d="M226.333 110.667L226.667 111.333L226.333 110.667M235 110L235 111L239 113L235 110z"/>
<path style="fill:#0758a3; stroke:none;" d="M237 110L237 111L238 117C241.278 114.494 240.929 111.317 237 110z"/>
<path style="fill:#bf935b; stroke:none;" d="M240 110L241 111L240 110z"/>
<path style="fill:#0758a3; stroke:none;" d="M244 110L242 117L246 110L244 110z"/>
<path style="fill:#bf935b; stroke:none;" d="M246 110L247 111L246 110z"/>
<path style="fill:#0758a3; stroke:none;" d="M249 110L247 117L254 111L253 117L257 111L249 110z"/>
<path style="fill:#bf935b; stroke:none;" d="M251 110L252 111L251 110M264 110L265 111L264 110M267 110L268 111L267 110M65 111L65 115L66 115L65 111M74.6667 111.333L75.3333 111.667L74.6667 111.333M81 111L82 112L81 111z"/>
<path style="fill:#fdfdfe; stroke:none;" d="M87 111L88 112L87 111z"/>
<path style="fill:#bf935b; stroke:none;" d="M91.6667 111.333L92.3333 111.667L91.6667 111.333M106.667 111.333L107.333 111.667L106.667 111.333M113.667 111.333L114.333 111.667L113.667 111.333M117.333 111.667L117.667 112.333L117.333 111.667M122 111L123 112L122 111M124.333 111.667L124.667 112.333L124.333 111.667M149 111L150 112L149 111M167.333 111.667L167.667 112.333L167.333 111.667z"/>
<path style="fill:#0758a3; stroke:none;" d="M170.667 111.333L171.333 111.667L170.667 111.333z"/>
<path style="fill:#bf935b; stroke:none;" d="M177.333 111.667L177.667 112.333L177.333 111.667M183 111L184 112L183 111M198 111L199 112L198 111M203 111L203 112L206 114L207 114L203 111M208 111L209 112L208 111M219 111L220 112L219 111M243.333 111.667L243.667 112.333L243.333 111.667M248 111L249 112L248 111M252.667 111.333L253.333 111.667L252.667 111.333M261 111L262 112L261 111M62 112L63 113L62 112z"/>
<path style="fill:#fdfdfe; stroke:none;" d="M65 112L66 113L65 112M73 115L77 112L73 115z"/>
<path style="fill:#bf935b; stroke:none;" d="M79.3333 112.667L79.6667 113.333L79.3333 112.667z"/>
<path style="fill:#fdfdfe; stroke:none;" d="M90 112L90 113L94 113L90 112z"/>
<path style="fill:#bf935b; stroke:none;" d="M105.333 112.667L105.667 113.333L105.333 112.667M111 112L112 113L111 112M129 112L130 113L129 112M148 112L149 113L148 112M156 112L157 113L156 112M182 112L183 113L182 112M190.333 112.667L190.667 113.333L190.333 112.667M197 112L198 113L197 112M199 112L200 113L199 112z"/>
<path style="fill:#fdfdfe; stroke:none;" d="M202 112L203 116L206 112L202 112z"/>
<path style="fill:#bf935b; stroke:none;" d="M213 112L214 113L213 112M232.333 112.667L232.667 113.333L232.333 112.667M256.333 112.667L256.667 113.333L256.333 112.667M264.333 112.667L264.667 113.333L264.333 112.667M55 113L56 114L55 113M59 113L59 117L60 117L59 113M61 113L62 114L61 113M72.3333 113.667L72.6667 114.333L72.3333 113.667M83 113L84 114L83 113M108.333 113.667L108.667 114.333L108.333 113.667M114.333 113.667L114.667 114.333L114.333 113.667M119 113L120 114L119 113M137.333 113.667L137.667 114.333L137.333 113.667M150 113L151 114L150 113M169 113L170 114L169 113M210.333 113.667L210.667 114.333L210.333 113.667M216 113L217 114L216 113M234.333 113.667L234.667 114.333L234.333 113.667M245 113L246 114L245 113M250 113L251 114L250 113M258.333 113.667L258.667 114.333L258.333 113.667M57 114L58 115L57 114M63 114L64 115L63 114M67.3333 114.667L67.6667 115.333L67.3333 114.667M76 114L77 115L76 114M87 114L88 115L87 114M102 114L102 117L103 117L102 114M118.333 114.667L118.667 115.333L118.333 114.667z"/>
<path style="fill:#fdfdfe; stroke:none;" d="M121 114L121 115L124 115L121 114z"/>
<path style="fill:#bf935b; stroke:none;" d="M126 114L126 117L127 117L126 114M131 114L132 115L131 114M149 114L150 115L149 114M158 114L159 115L158 114M164 114L165 115L164 114M171 114L175 117L175 114L171 114z"/>
<path style="fill:#fdfdfe; stroke:none;" d="M172.667 114.333L173.333 114.667L172.667 114.333z"/>
<path style="fill:#bf935b; stroke:none;" d="M179 114L180 115L179 114M193 114L194 115L193 114M208 114L209 115L208 114M218.333 114.667L218.667 115.333L218.333 114.667M226 114L227 115L226 114M240 114L241 115L240 114M247.333 114.667L247.667 115.333L247.333 114.667M253 114L254 115L253 114M261 114L262 115L261 114M73 115L73 116L76 116L73 115M78 115L79 116L78 115M80.3333 115.667L80.6667 116.333L80.3333 115.667M90 115L91 116L90 115M92 115L93 116L92 115M95 115L96 116L95 115M105 115L106 116L105 115M110 115L111 116L110 115M116 115L117 116L116 115M121.667 115.333L122.333 115.667L121.667 115.333M128.333 115.667L128.667 116.333L128.333 115.667M134.333 115.667L134.667 116.333L134.333 115.667M145.333 115.667L145.667 116.333L145.333 115.667M154 115L155 116L154 115M166.333 115.667L166.667 116.333L166.333 115.667M168 115L169 116L168 115M176.333 115.667L176.667 116.333L176.333 115.667M199 115L200 116L199 115M202 115L203 116L202 115M204 115L205 116L204 115M207 115L208 116L207 115M213 115L216 117L213 115M237.333 115.667L237.667 116.333L237.333 115.667M242 115L243 116L242 115M260 115L261 116L260 115M265 115L266 116L265 115z"/>
<path style="fill:#0758a3; stroke:none;" d="M268 115L268 117L270 117L270 115L268 115z"/>
<path style="fill:#bf935b; stroke:none;" d="M270 115L271 116L270 115M54 116L55 117L54 116M71 116L72 117L71 116M76 116L77 117L76 116M82 116L83 117L82 116M119 116L120 117L119 116M123 116L124 117L123 116M136 116L137 117L136 116M160 116L161 117L160 116M169 116L170 117L169 116M179 116L180 117L179 116M191 116L192 117L191 116M194 116L195 117L194 116M200 116L201 117L200 116M206 116L207 117L206 116M226 116L227 117L226 116M231 116L232 117L231 116M244 116L245 117L244 116M249 116L250 117L249 116M255 116L256 117L255 116M263 116L264 117L263 116M193 117L194 118L193 117M188 118L192 120L192 119L188 118z"/>
</svg>
